HIERARCHY
ROOT Hips
{
	OFFSET 0.000000 0.000000 0.000000
	CHANNELS 6 Xposition Yposition Zposition Zrotation Yrotation Xrotation 
	JOINT LHipJoint
	{
		OFFSET 0.000000 0.000000 0.000000
		CHANNELS 3 Zrotation Yrotation Xrotation
		JOINT LeftUpLeg
		{
			OFFSET 1.363060 -1.794630 0.839290
			CHANNELS 3 Zrotation Yrotation Xrotation
			JOINT LeftLeg
			{
				OFFSET 2.448110 -6.726130 0.000000
				CHANNELS 3 Zrotation Yrotation Xrotation
				JOINT LeftFoot
				{
					OFFSET 2.562200 -7.039590 0.000000
					CHANNELS 3 Zrotation Yrotation Xrotation
					JOINT LeftToeBase
					{
						OFFSET 0.157640 -0.433110 2.322550
						CHANNELS 3 Zrotation Yrotation Xrotation
						End Site
						{
							OFFSET 0.000000 0.000000 0.000000
						}
					}
				}
			}
		}
	}
	JOINT RHipJoint
	{
		OFFSET 0.000000 0.000000 0.000000
		CHANNELS 3 Zrotation Yrotation Xrotation
		JOINT RightUpLeg
		{
			OFFSET -1.305520 -1.794630 0.839290
			CHANNELS 3 Zrotation Yrotation Xrotation
			JOINT RightLeg
			{
				OFFSET -2.542530 -6.985550 0.000000
				CHANNELS 3 Zrotation Yrotation Xrotation
				JOINT RightFoot
				{
					OFFSET -2.568260 -7.056230 0.000000
					CHANNELS 3 Zrotation Yrotation Xrotation
					JOINT RightToeBase
					{
						OFFSET -0.164730 -0.452590 2.363150
						CHANNELS 3 Zrotation Yrotation Xrotation
						End Site
						{
							OFFSET 0.000000 0.000000 0.000000
						}
					}
				}
			}
		}
	}
	JOINT LowerBack
	{
		OFFSET 0.000000 0.000000 0.000000
		CHANNELS 3 Zrotation Yrotation Xrotation
		JOINT Spine
		{
			OFFSET 0.028270 2.035590 -0.193380
			CHANNELS 3 Zrotation Yrotation Xrotation
			JOINT Spine1
			{
				OFFSET 0.056720 2.048850 -0.042750
				CHANNELS 3 Zrotation Yrotation Xrotation
				JOINT Neck
				{
					OFFSET 0.000000 0.000000 0.000000
					CHANNELS 3 Zrotation Yrotation Xrotation
					JOINT Neck1
					{
						OFFSET -0.054170 1.746240 0.172020
						CHANNELS 3 Zrotation Yrotation Xrotation
						JOINT Head
						{
							OFFSET 0.104070 1.761360 -0.123970
							CHANNELS 3 Zrotation Yrotation Xrotation
							End Site
							{
								OFFSET 0.000000 0.000000 0.000000
							}
						}
					}
				}
				JOINT LeftShoulder
				{
					OFFSET 0.000000 0.000000 0.000000
					CHANNELS 3 Zrotation Yrotation Xrotation
					JOINT LeftArm
					{
						OFFSET 3.362410 1.200890 -0.311210
						CHANNELS 3 Zrotation Yrotation Xrotation
						JOINT LeftForeArm
						{
							OFFSET 4.983000 -0.000000 -0.000000
							CHANNELS 3 Zrotation Yrotation Xrotation
							JOINT LeftHand
							{
								OFFSET 3.483560 -0.000000 -0.000000
								CHANNELS 3 Zrotation Yrotation Xrotation
								JOINT LeftFingerBase
								{
									OFFSET 0.000000 0.000000 0.000000
									CHANNELS 3 Zrotation Yrotation Xrotation
									JOINT LeftHandIndex1
									{
										OFFSET 0.715260 -0.000000 -0.000000
										CHANNELS 3 Zrotation Yrotation Xrotation
										End Site
										{
											OFFSET 0.000000 0.000000 0.000000
										}
									}
								}
								JOINT LThumb
								{
									OFFSET 0.000000 0.000000 0.000000
									CHANNELS 3 Zrotation Yrotation Xrotation
									End Site
									{
										OFFSET 0.000000 0.000000 0.000000
									}
								}
							}
						}
					}
				}
				JOINT RightShoulder
				{
					OFFSET 0.000000 0.000000 0.000000
					CHANNELS 3 Zrotation Yrotation Xrotation
					JOINT RightArm
					{
						OFFSET -3.136600 1.374050 -0.404650
						CHANNELS 3 Zrotation Yrotation Xrotation
						JOINT RightForeArm
						{
							OFFSET -5.241900 -0.000000 -0.000000
							CHANNELS 3 Zrotation Yrotation Xrotation
							JOINT RightHand
							{
								OFFSET -3.444170 -0.000000 -0.000000
								CHANNELS 3 Zrotation Yrotation Xrotation
								JOINT RightFingerBase
								{
									OFFSET 0.000000 0.000000 0.000000
									CHANNELS 3 Zrotation Yrotation Xrotation
									JOINT RightHandIndex1
									{
										OFFSET -0.622530 -0.000000 -0.000000
										CHANNELS 3 Zrotation Yrotation Xrotation
										End Site
										{
											OFFSET 0.000000 0.000000 0.000000
										}
									}
								}
								JOINT RThumb
								{
									OFFSET 0.000000 0.000000 0.000000
									CHANNELS 3 Zrotation Yrotation Xrotation
									End Site
									{
										OFFSET 0.000000 0.000000 0.000000
									}
								}
							}
						}
					}
				}
			}
		}
	}
}
MOTION
Frames: 10
Frame Time: 0.008333
6.683769 16.270571 -4.466231 -102.761939 -82.289372 115.616969 0.451413 -1.336920 -8.235082 -21.112560 10.110463 -10.060573 -2.485694 11.883828 40.603828 -17.659050 -11.298071 9.544190 3.275215 -15.216230 0.757875 -1.417996 -2.157710 -1.655960 16.879878 13.702868 -34.871299 -0.465852 0.724006 -0.417932 30.529744 -2.990378 5.748187 4.636370 -8.757122 8.171468 2.009610 0.366225 15.145050 5.231206 -2.956748 -11.152981 6.638881 -4.977204 -0.098531 -2.967610 0.493460 -12.114772 8.681281 0.485806 9.142450 -13.848144 11.654306 18.857044 7.294243 -3.077938 2.073216 -88.481676 -32.446022 48.782186 142.052568 -61.253935 -114.875397 -36.449990 6.568502 -2.638139 -0.000001 -0.000002 -0.000000 -0.000000 -0.000000 -0.000000 0.000000 -0.000000 -0.000000 -7.794371 1.852332 0.768752 70.413458 8.808425 19.083622 -82.058820 77.063090 -65.234773 4.082814 -3.690694 -0.591457 0.000000 0.000002 -0.000000 0.000000 -0.000000 0.000000 0.000000 0.000000 0.000000 
6.447207 16.224775 -4.457447 -101.457516 -82.586055 114.141975 0.438768 -1.248734 -8.142966 -20.816645 9.499200 -10.215375 -3.037890 11.728592 42.959323 -16.727313 -10.836230 8.934245 3.737926 -14.851759 -3.176493 -1.527073 -2.526285 -1.541226 17.299816 13.956645 -35.043428 -0.636213 1.571113 0.549384 29.680005 -3.894577 5.809730 4.484917 -9.837552 5.887447 2.090339 0.293118 14.997055 5.218685 -3.107975 -11.004034 7.273818 -5.266297 0.173262 -3.560192 0.590687 -12.434497 8.522737 0.711355 8.895718 -13.543953 11.645856 18.490791 6.841945 -2.582593 2.104275 -88.264733 -32.193816 49.134519 142.181760 -60.727382 -113.788764 -37.030379 5.840307 -2.304076 -0.000001 -0.000002 -0.000000 -0.000000 0.000000 0.000000 -0.000000 0.000000 0.000000 -8.553555 1.928762 0.545663 70.114364 9.364197 18.260766 -81.071530 77.904695 -62.560709 3.814006 -2.936488 -0.454741 0.000000 0.000002 -0.000000 0.000000 -0.000000 -0.000000 0.000000 -0.000000 0.000000 
6.210826 16.165165 -4.452012 -98.805820 -82.902002 111.176858 0.693939 -1.219876 -8.048100 -20.689725 8.299355 -9.942062 -3.936309 11.914928 45.080960 -15.026477 -10.246696 8.036264 3.877555 -14.247230 -5.367244 -1.976192 -3.195029 -1.345519 18.192308 14.469081 -35.030151 -0.960106 2.010891 1.375088 28.834439 -4.532865 6.124003 4.743195 -11.258824 5.016257 2.232262 0.217275 14.835683 5.091065 -3.288047 -10.695654 6.796873 -5.326525 0.096952 -3.034424 0.627061 -12.259073 8.381044 0.654591 8.595372 -13.604421 11.539775 18.319137 7.791431 -2.672761 2.178217 -88.084408 -31.608428 49.540934 141.980259 -59.984841 -111.840050 -37.272509 4.527020 -1.654302 -0.000001 -0.000002 -0.000000 0.000000 0.000000 0.000000 0.000000 -0.000000 0.000000 -8.251076 1.955537 0.761314 69.899726 9.613580 18.499885 -83.064700 77.476792 -65.532993 3.142206 -3.835211 -0.599140 0.000000 0.000002 -0.000000 0.000000 -0.000000 0.000000 -0.000000 0.000000 -0.000000 
5.977492 16.089940 -4.442147 -96.935796 -83.182220 108.953585 0.786470 -1.030336 -7.914608 -20.392142 7.150776 -10.021115 -4.275624 12.714211 47.573212 -13.907771 -9.553763 7.165395 3.936153 -13.185545 -8.159203 -2.396686 -3.768444 -1.060331 18.885524 15.036104 -35.425691 -1.211029 1.631822 3.246207 28.568980 -4.587542 5.911506 5.396717 -12.704288 6.281141 2.382608 0.196646 14.544545 4.918663 -3.299067 -10.344965 7.090780 -5.389427 0.652663 -3.428069 0.690285 -12.637937 8.217458 0.809376 8.338682 -13.042798 11.194983 17.455901 7.691236 -2.387514 2.107900 -87.973894 -31.489118 49.217022 142.399250 -60.022775 -112.687830 -36.984124 4.983678 -1.873636 -0.000001 -0.000002 -0.000000 0.000000 -0.000000 -0.000000 -0.000000 -0.000000 -0.000000 -8.820700 1.782806 0.844949 69.671844 10.498551 18.313681 -83.764041 77.509406 -66.823527 2.890621 -4.284949 -0.669314 0.000000 0.000002 -0.000000 0.000000 0.000000 0.000000 0.000000 0.000000 0.000000 
5.743994 16.013964 -4.435736 -93.374610 -83.541198 105.062314 0.502745 -0.892868 -7.608838 -19.581572 5.532002 -10.445765 -4.495969 14.077410 50.325280 -11.814169 -8.724709 6.047751 3.675224 -12.293364 -8.218906 -2.244228 -4.466564 -0.831207 18.780836 15.493971 -36.129984 -1.419535 0.028131 5.854232 28.911519 -3.915667 5.626458 6.342934 -13.873468 10.144616 2.370149 0.150550 14.167764 4.879545 -3.321609 -10.121349 6.962856 -5.430558 1.118959 -3.482625 0.723554 -12.738948 8.064541 0.858291 8.169273 -13.010009 11.030984 17.197352 7.578907 -2.113421 2.090659 -87.758213 -31.148774 48.924504 142.091985 -60.316730 -112.298326 -36.039038 4.591049 -1.647879 -0.000001 -0.000002 -0.000000 0.000000 -0.000000 0.000000 0.000000 0.000000 -0.000000 -8.851167 1.891864 0.912489 69.318810 11.118022 17.761605 -83.906286 77.869774 -67.824739 2.173868 -4.948238 -0.759186 0.000000 0.000002 -0.000000 0.000000 -0.000000 0.000000 0.000000 -0.000000 -0.000000 
5.514775 15.923423 -4.431471 -89.200229 -83.934638 100.291257 0.314268 -0.669742 -7.326661 -19.038453 4.369164 -10.698814 -4.089312 15.384987 53.108180 -10.974162 -8.056552 5.506321 3.409156 -10.780417 -10.035336 -2.288892 -5.522780 -0.791670 19.618123 15.377720 -36.425616 -1.867468 -0.631704 8.741850 28.902803 -3.170625 5.518632 7.492622 -16.873217 13.030500 2.321103 0.103984 13.964853 4.690159 -3.122123 -9.734056 6.725931 -5.191365 1.444452 -3.421806 0.677674 -12.705141 7.885277 0.784637 7.930665 -12.972105 10.472409 18.103027 7.898472 -2.367215 2.178713 -87.634468 -30.956678 48.406611 142.073475 -60.676641 -113.171173 -35.422250 5.120634 -1.884413 -0.000001 -0.000002 -0.000000 -0.000000 0.000000 -0.000000 0.000000 0.000000 0.000000 -8.917985 1.553160 0.981754 69.134644 11.559120 17.115921 -84.138027 78.269006 -68.869758 1.848830 -5.464489 -0.831103 0.000000 0.000002 -0.000000 -0.000000 0.000000 0.000000 -0.000000 0.000000 0.000000 
5.289805 15.824174 -4.434009 -82.864630 -84.383526 93.505112 0.277267 -0.645674 -7.276155 -18.698196 3.172981 -10.806700 -3.166247 17.079321 55.706187 -10.524312 -7.751727 5.424505 3.280918 -9.930327 -11.503036 -2.692607 -6.001139 -0.377394 19.974655 15.510516 -37.315243 -2.169645 -0.696081 11.959934 24.871354 -2.443785 4.704616 6.617497 -14.642741 10.648183 2.105944 -0.056410 13.606286 4.567008 -3.302860 -9.287620 6.676509 -5.387593 2.146783 -3.447104 0.735525 -13.073651 7.749760 0.848559 7.731938 -12.367526 10.035898 17.136422 8.223331 -1.667752 2.283494 -87.581809 -31.086670 47.605276 142.579754 -61.224985 -115.531623 -34.399703 6.455342 -2.477407 -0.000001 -0.000002 -0.000000 0.000000 0.000000 0.000000 -0.000000 0.000000 -0.000000 -9.290689 1.633678 0.798497 69.079445 12.483066 15.259350 -81.446793 80.021464 -65.938282 1.289140 -5.539051 -0.823670 0.000000 0.000002 -0.000000 0.000000 0.000000 0.000000 0.000000 -0.000000 -0.000000 
5.059174 15.736787 -4.436171 -74.231967 -84.874104 84.910954 -0.128899 -0.586417 -7.259992 -18.081601 2.018062 -11.722363 -2.077774 18.345052 58.630235 -9.879439 -7.651622 5.226363 3.013804 -9.342333 -10.705743 -2.607421 -6.309264 0.703149 18.672552 16.454141 -40.164741 -2.079455 -1.174652 16.852980 18.763068 -1.998687 2.316368 4.406885 -8.167236 7.831157 1.672391 -0.110955 12.738310 4.548382 -3.212628 -8.948995 6.716942 -5.355185 2.505090 -3.563098 0.756966 -12.975191 7.525439 0.878397 7.704463 -12.096296 9.532891 15.917925 8.144315 -1.700659 2.353543 -87.513889 -30.873345 46.793996 142.219121 -62.116064 -117.314098 -32.473192 7.775873 -2.978129 -0.000001 -0.000002 -0.000000 -0.000000 0.000000 -0.000000 0.000000 0.000000 0.000000 -9.374613 1.594260 0.906683 68.685561 13.113001 14.398300 -79.122299 80.535709 -64.719334 1.177792 -5.825903 -0.863350 0.000000 0.000002 -0.000000 0.000000 0.000000 -0.000000 0.000000 0.000000 0.000000 
4.845631 15.637387 -4.418829 -69.634332 -85.245121 79.910024 -0.583283 -0.257459 -6.990134 -17.364745 1.304459 -12.925450 -0.513520 19.349850 61.914755 -9.676050 -7.799679 4.885042 2.930075 -9.064408 -10.775039 -2.288201 -6.883454 0.991721 18.061431 16.980524 -42.164266 -2.322152 -2.335088 22.560798 13.810966 -1.412951 -0.043670 2.724466 -4.032759 5.506055 1.585770 -0.152911 12.389601 4.375612 -2.932130 -8.545962 6.463615 -5.084409 2.831059 -3.494914 0.652569 -12.773599 7.267052 0.772049 7.784533 -13.164861 9.301368 16.083688 8.324103 -1.567145 2.537692 -87.677061 -30.858098 45.467441 141.874710 -63.594295 -119.616790 -30.518167 9.165099 -3.455649 -0.000001 -0.000002 -0.000000 -0.000000 0.000000 -0.000000 0.000000 0.000000 -0.000000 -9.432916 1.831598 0.716390 68.319801 13.667028 11.822670 -69.811521 82.522570 -56.077617 0.676144 -5.217719 -0.755444 0.000000 0.000002 -0.000000 0.000000 -0.000000 0.000000 0.000000 -0.000000 -0.000000 
4.643679 15.556757 -4.422477 -57.608184 -85.890189 67.551129 -1.583417 -0.390652 -6.735612 -16.298748 0.477446 -14.120491 0.933521 20.402605 64.963980 -9.017172 -7.974302 4.871579 3.551636 -11.505645 -9.243425 -1.572473 -6.831982 0.922746 16.358148 16.501027 -44.014649 -2.752254 -4.090237 27.591065 9.913977 -1.148142 -1.718799 4.566277 -8.072020 8.717210 0.696486 -0.067334 12.312171 4.416862 -2.675976 -8.385642 6.825154 -4.887449 2.733629 -3.829449 0.740308 -12.346196 6.977787 0.870573 7.906285 -12.335136 8.398402 13.407414 7.919147 -1.879483 2.713197 -87.686204 -30.659204 44.337286 141.039024 -65.015918 -121.698968 -27.741862 10.682399 -3.857887 -0.000001 -0.000002 -0.000000 -0.000000 -0.000000 -0.000000 0.000000 0.000000 0.000000 -9.603489 1.848680 0.910950 67.709543 14.226346 10.560878 -61.958415 83.020031 -49.517801 0.582686 -5.213903 -0.751981 0.000000 0.000002 -0.000000 -0.000000 -0.000000 -0.000000 0.000000 0.000000 -0.000000 
